# xmcd CD database file
# Copyright (C) 1993-1998 Ti Kan
# 
# Track frame offsets:
#     182
#     12637
#     25312
#     35890
#     50132
#     62747
#     77822
#     90617
#     104147
#     118175
#     132627
# 
# Disc length: 1970 seconds
# 
# Revision: 1
# Processed by: cddbd v1.4b41PL1 Copyright (c) Steve Scherf et al.
# Submitted via: DiscPlay 4.0.4
# 
DISCID=a807b00b
DTITLE=The Statler Brothers - The Statler Brothers Sing Country Symphonies i
DTITLE=n E Major
DYEAR=1900
DGENRE=
TTITLE0=Monday Morning Secretary
TTITLE1=Burning Bridges
TTITLE2=I Want To Carry Your Sweet Memories
TTITLE3=I Believe in Music
TTITLE4=A Special Song For Wanda
TTITLE5=I'll Be Your Baby Tonight
TTITLE6=Woman Without A Home
TTITLE7=Delta Dawn
TTITLE8=Wedding Bells
TTITLE9=Too Many Rivers
TTITLE10=They Can't Take You Out Of Me
EXTD=
EXTT0=
EXTT1=
EXTT2=
EXTT3=
EXTT4=
EXTT5=
EXTT6=
EXTT7=
EXTT8=
EXTT9=
EXTT10=
PLAYORDER=
